<?xml version="1.0" standalone="no"?>
<!DOCTYPE svg PUBLIC "-//W3C//DTD SVG 20010904//EN"
 "http://www.w3.org/TR/2001/REC-SVG-20010904/DTD/svg10.dtd">
<svg version="1.0" xmlns="http://www.w3.org/2000/svg"
 width="1024.000000pt" height="1024.000000pt" viewBox="0 0 1024.000000 1024.000000"
 preserveAspectRatio="xMidYMid meet">
<metadata>
Created by potrace 1.16, written by Peter Selinger 2001-2019
</metadata>
<g transform="translate(0.000000,1024.000000) scale(0.100000,-0.100000)"
fill="#000000" stroke="none">
<path d="M0 5120 l0 -5120 5120 0 5120 0 0 5120 0 5120 -5120 0 -5120 0 0
-5120z m5305 3419 c193 -32 379 -131 530 -283 94 -95 159 -188 214 -308 l41
-88 757 0 c840 0 824 1 959 -66 176 -87 323 -260 381 -449 17 -57 18 -165 18
-2575 l0 -2515 -31 -86 c-92 -257 -323 -446 -586 -479 -117 -14 -4838 -14
-4944 1 -260 36 -487 224 -578 478 l-31 86 0 2520 0 2520 27 75 c32 90 59 140
120 218 93 120 237 217 373 252 75 19 111 20 837 20 l758 0 43 93 c69 147 155
261 273 361 235 200 521 277 839 225z"/>
<path d="M5015 7847 c-68 -23 -101 -44 -148 -97 -91 -101 -109 -256 -45 -389
32 -68 116 -145 180 -167 123 -42 255 -15 342 69 60 60 91 119 107 201 27 150
-52 309 -183 366 -65 28 -192 37 -253 17z"/>
<path d="M3400 6150 l0 -350 1720 0 1720 0 0 350 0 350 -1720 0 -1720 0 0
-350z"/>
<path d="M3400 4775 l0 -335 1720 0 1720 0 0 335 0 335 -1720 0 -1720 0 0
-335z"/>
<path d="M3400 3395 l0 -345 1205 0 1205 0 0 345 0 345 -1205 0 -1205 0 0
-345z"/>
</g>
</svg>
